<mxfile host="app.diagrams.net" modified="2023-03-16T03:56:36.497Z" agent="5.0 (Windows NT 10.0; Win64; x64) AppleWebKit/537.36 (KHTML, like Gecko) Chrome/111.0.0.0 Safari/537.36" etag="l0AL-6EXm3XCjaITXolF" version="21.0.6" type="github">
  <diagram id="prtHgNgQTEPvFCAcTncT" name="Page-1">
    <mxGraphModel dx="1434" dy="764" grid="1" gridSize="10" guides="1" tooltips="1" connect="1" arrows="1" fold="1" page="1" pageScale="1" pageWidth="827" pageHeight="1169" math="0" shadow="0">
      <root>
        <mxCell id="0" />
        <mxCell id="1" parent="0" />
        <mxCell id="wHRNBy8dRpWRHx9Yq-Zz-4" value="Pool" style="swimlane;html=1;childLayout=stackLayout;startSize=20;rounded=0;shadow=0;labelBackgroundColor=none;strokeWidth=1;fontFamily=Verdana;fontSize=8;align=center;" vertex="1" parent="1">
          <mxGeometry x="20" y="70" width="960" height="750" as="geometry" />
        </mxCell>
        <mxCell id="wHRNBy8dRpWRHx9Yq-Zz-5" value="MainMenu" style="swimlane;html=1;startSize=20;" vertex="1" parent="wHRNBy8dRpWRHx9Yq-Zz-4">
          <mxGeometry y="20" width="160" height="730" as="geometry" />
        </mxCell>
        <mxCell id="wHRNBy8dRpWRHx9Yq-Zz-6" value="获取实例并转换到MyGameInstance" style="rounded=1;whiteSpace=wrap;html=1;shadow=0;labelBackgroundColor=none;strokeWidth=1;fontFamily=Verdana;fontSize=8;align=center;" vertex="1" parent="wHRNBy8dRpWRHx9Yq-Zz-5">
          <mxGeometry x="40" y="30" width="100" height="60" as="geometry" />
        </mxCell>
        <mxCell id="wHRNBy8dRpWRHx9Yq-Zz-9" style="edgeStyle=orthogonalEdgeStyle;rounded=1;html=1;labelBackgroundColor=none;startArrow=none;startFill=0;startSize=5;endArrow=classicThin;endFill=1;endSize=5;jettySize=auto;orthogonalLoop=1;strokeWidth=1;fontFamily=Verdana;fontSize=8" edge="1" parent="wHRNBy8dRpWRHx9Yq-Zz-4" source="wHRNBy8dRpWRHx9Yq-Zz-6" target="wHRNBy8dRpWRHx9Yq-Zz-25">
          <mxGeometry relative="1" as="geometry" />
        </mxCell>
        <mxCell id="wHRNBy8dRpWRHx9Yq-Zz-16" style="edgeStyle=orthogonalEdgeStyle;rounded=1;html=1;labelBackgroundColor=none;startArrow=none;startFill=0;startSize=5;endArrow=classicThin;endFill=1;endSize=5;jettySize=auto;orthogonalLoop=1;strokeWidth=1;fontFamily=Verdana;fontSize=8" edge="1" parent="wHRNBy8dRpWRHx9Yq-Zz-4" source="wHRNBy8dRpWRHx9Yq-Zz-36" target="wHRNBy8dRpWRHx9Yq-Zz-44">
          <mxGeometry relative="1" as="geometry" />
        </mxCell>
        <mxCell id="wHRNBy8dRpWRHx9Yq-Zz-17" style="edgeStyle=orthogonalEdgeStyle;rounded=1;html=1;labelBackgroundColor=none;startArrow=none;startFill=0;startSize=5;endArrow=classicThin;endFill=1;endSize=5;jettySize=auto;orthogonalLoop=1;strokeWidth=1;fontFamily=Verdana;fontSize=8" edge="1" parent="wHRNBy8dRpWRHx9Yq-Zz-4" source="wHRNBy8dRpWRHx9Yq-Zz-44" target="wHRNBy8dRpWRHx9Yq-Zz-48">
          <mxGeometry relative="1" as="geometry" />
        </mxCell>
        <mxCell id="wHRNBy8dRpWRHx9Yq-Zz-18" style="edgeStyle=orthogonalEdgeStyle;rounded=1;html=1;labelBackgroundColor=none;startArrow=none;startFill=0;startSize=5;endArrow=classicThin;endFill=1;endSize=5;jettySize=auto;orthogonalLoop=1;strokeWidth=1;fontFamily=Verdana;fontSize=8" edge="1" parent="wHRNBy8dRpWRHx9Yq-Zz-4" source="wHRNBy8dRpWRHx9Yq-Zz-34" target="wHRNBy8dRpWRHx9Yq-Zz-41">
          <mxGeometry relative="1" as="geometry" />
        </mxCell>
        <mxCell id="wHRNBy8dRpWRHx9Yq-Zz-20" style="edgeStyle=orthogonalEdgeStyle;rounded=1;html=1;labelBackgroundColor=none;startArrow=none;startFill=0;startSize=5;endArrow=classicThin;endFill=1;endSize=5;jettySize=auto;orthogonalLoop=1;strokeColor=#000000;strokeWidth=1;fontFamily=Verdana;fontSize=8;fontColor=#000000;" edge="1" parent="wHRNBy8dRpWRHx9Yq-Zz-4" source="wHRNBy8dRpWRHx9Yq-Zz-43" target="wHRNBy8dRpWRHx9Yq-Zz-35">
          <mxGeometry relative="1" as="geometry" />
        </mxCell>
        <mxCell id="wHRNBy8dRpWRHx9Yq-Zz-24" value="MyGameInstance" style="swimlane;html=1;startSize=20;" vertex="1" parent="wHRNBy8dRpWRHx9Yq-Zz-4">
          <mxGeometry x="160" y="20" width="160" height="730" as="geometry" />
        </mxCell>
        <mxCell id="wHRNBy8dRpWRHx9Yq-Zz-56" style="edgeStyle=orthogonalEdgeStyle;rounded=0;orthogonalLoop=1;jettySize=auto;html=1;exitX=0.5;exitY=1;exitDx=0;exitDy=0;entryX=0.5;entryY=0;entryDx=0;entryDy=0;" edge="1" parent="wHRNBy8dRpWRHx9Yq-Zz-24" source="wHRNBy8dRpWRHx9Yq-Zz-25" target="wHRNBy8dRpWRHx9Yq-Zz-50">
          <mxGeometry relative="1" as="geometry" />
        </mxCell>
        <mxCell id="wHRNBy8dRpWRHx9Yq-Zz-25" value="ShowMainMenuEvent" style="rounded=1;whiteSpace=wrap;html=1;shadow=0;labelBackgroundColor=none;strokeWidth=1;fontFamily=Verdana;fontSize=8;align=center;" vertex="1" parent="wHRNBy8dRpWRHx9Yq-Zz-24">
          <mxGeometry x="10" y="30" width="140" height="60" as="geometry" />
        </mxCell>
        <mxCell id="wHRNBy8dRpWRHx9Yq-Zz-57" style="edgeStyle=orthogonalEdgeStyle;rounded=0;orthogonalLoop=1;jettySize=auto;html=1;exitX=1;exitY=0.25;exitDx=0;exitDy=0;" edge="1" parent="wHRNBy8dRpWRHx9Yq-Zz-24" source="wHRNBy8dRpWRHx9Yq-Zz-50">
          <mxGeometry relative="1" as="geometry">
            <mxPoint x="180" y="145" as="targetPoint" />
          </mxGeometry>
        </mxCell>
        <mxCell id="wHRNBy8dRpWRHx9Yq-Zz-50" value="Create Menu Widget&lt;br&gt;Set Input Mode UI Only&lt;br&gt;Add to Viewport&lt;br&gt;show mouse cursor" style="rounded=1;whiteSpace=wrap;html=1;" vertex="1" parent="wHRNBy8dRpWRHx9Yq-Zz-24">
          <mxGeometry x="10" y="120" width="140" height="100" as="geometry" />
        </mxCell>
        <mxCell id="wHRNBy8dRpWRHx9Yq-Zz-63" style="edgeStyle=orthogonalEdgeStyle;rounded=0;orthogonalLoop=1;jettySize=auto;html=1;exitX=1;exitY=0.5;exitDx=0;exitDy=0;" edge="1" parent="wHRNBy8dRpWRHx9Yq-Zz-24" source="wHRNBy8dRpWRHx9Yq-Zz-60">
          <mxGeometry relative="1" as="geometry">
            <mxPoint x="350" y="260" as="targetPoint" />
          </mxGeometry>
        </mxCell>
        <mxCell id="wHRNBy8dRpWRHx9Yq-Zz-60" value="HostGameEvent&lt;br&gt;CreateSession&lt;br&gt;OpenLevel(listen)" style="rounded=1;whiteSpace=wrap;html=1;shadow=0;labelBackgroundColor=none;strokeWidth=1;fontFamily=Verdana;fontSize=8;align=center;" vertex="1" parent="wHRNBy8dRpWRHx9Yq-Zz-24">
          <mxGeometry x="10" y="230" width="140" height="60" as="geometry" />
        </mxCell>
        <mxCell id="wHRNBy8dRpWRHx9Yq-Zz-61" value="ShowServerListEvent" style="rounded=1;whiteSpace=wrap;html=1;shadow=0;labelBackgroundColor=none;strokeWidth=1;fontFamily=Verdana;fontSize=8;align=center;" vertex="1" parent="wHRNBy8dRpWRHx9Yq-Zz-24">
          <mxGeometry x="10" y="390" width="140" height="60" as="geometry" />
        </mxCell>
        <mxCell id="wHRNBy8dRpWRHx9Yq-Zz-26" value="MenuWidget" style="swimlane;html=1;startSize=20;" vertex="1" parent="wHRNBy8dRpWRHx9Yq-Zz-4">
          <mxGeometry x="320" y="20" width="160" height="730" as="geometry" />
        </mxCell>
        <mxCell id="wHRNBy8dRpWRHx9Yq-Zz-58" value="接收相关参数,调用创建、查找房间的自定义事件" style="rounded=1;whiteSpace=wrap;html=1;shadow=0;labelBackgroundColor=none;strokeWidth=1;fontFamily=Verdana;fontSize=8;align=center;" vertex="1" parent="wHRNBy8dRpWRHx9Yq-Zz-26">
          <mxGeometry x="20" y="120" width="120" height="90" as="geometry" />
        </mxCell>
        <mxCell id="wHRNBy8dRpWRHx9Yq-Zz-31" value="level_01" style="swimlane;html=1;startSize=20;" vertex="1" parent="wHRNBy8dRpWRHx9Yq-Zz-4">
          <mxGeometry x="480" y="20" width="160" height="730" as="geometry" />
        </mxCell>
        <mxCell id="wHRNBy8dRpWRHx9Yq-Zz-33" value="" style="rhombus;whiteSpace=wrap;html=1;rounded=0;shadow=0;labelBackgroundColor=none;strokeWidth=1;fontFamily=Verdana;fontSize=8;align=center;" vertex="1" parent="wHRNBy8dRpWRHx9Yq-Zz-31">
          <mxGeometry x="40" y="320" width="80" height="60" as="geometry" />
        </mxCell>
        <mxCell id="wHRNBy8dRpWRHx9Yq-Zz-34" value="" style="rounded=1;whiteSpace=wrap;html=1;shadow=0;labelBackgroundColor=none;strokeWidth=1;fontFamily=Verdana;fontSize=8;align=center;" vertex="1" parent="wHRNBy8dRpWRHx9Yq-Zz-31">
          <mxGeometry x="30" y="400" width="100" height="60" as="geometry" />
        </mxCell>
        <mxCell id="wHRNBy8dRpWRHx9Yq-Zz-35" value="" style="rounded=1;whiteSpace=wrap;html=1;shadow=0;labelBackgroundColor=none;strokeWidth=1;fontFamily=Verdana;fontSize=8;align=center;" vertex="1" parent="wHRNBy8dRpWRHx9Yq-Zz-31">
          <mxGeometry x="30" y="560" width="100" height="60" as="geometry" />
        </mxCell>
        <mxCell id="wHRNBy8dRpWRHx9Yq-Zz-36" value="" style="rhombus;whiteSpace=wrap;html=1;rounded=0;shadow=0;labelBackgroundColor=none;strokeWidth=1;fontFamily=Verdana;fontSize=8;align=center;" vertex="1" parent="wHRNBy8dRpWRHx9Yq-Zz-31">
          <mxGeometry x="40" y="640" width="80" height="60" as="geometry" />
        </mxCell>
        <mxCell id="wHRNBy8dRpWRHx9Yq-Zz-38" style="edgeStyle=orthogonalEdgeStyle;rounded=1;html=1;labelBackgroundColor=none;startArrow=none;startFill=0;startSize=5;endArrow=classicThin;endFill=1;endSize=5;jettySize=auto;orthogonalLoop=1;strokeWidth=1;fontFamily=Verdana;fontSize=8" edge="1" parent="wHRNBy8dRpWRHx9Yq-Zz-31" source="wHRNBy8dRpWRHx9Yq-Zz-33" target="wHRNBy8dRpWRHx9Yq-Zz-34">
          <mxGeometry relative="1" as="geometry" />
        </mxCell>
        <mxCell id="wHRNBy8dRpWRHx9Yq-Zz-39" style="edgeStyle=orthogonalEdgeStyle;rounded=1;html=1;labelBackgroundColor=none;startArrow=none;startFill=0;startSize=5;endArrow=classicThin;endFill=1;endSize=5;jettySize=auto;orthogonalLoop=1;strokeWidth=1;fontFamily=Verdana;fontSize=8" edge="1" parent="wHRNBy8dRpWRHx9Yq-Zz-31" source="wHRNBy8dRpWRHx9Yq-Zz-35" target="wHRNBy8dRpWRHx9Yq-Zz-36">
          <mxGeometry relative="1" as="geometry" />
        </mxCell>
        <mxCell id="wHRNBy8dRpWRHx9Yq-Zz-40" value="Lane 5" style="swimlane;html=1;startSize=20;" vertex="1" parent="wHRNBy8dRpWRHx9Yq-Zz-4">
          <mxGeometry x="640" y="20" width="160" height="730" as="geometry" />
        </mxCell>
        <mxCell id="wHRNBy8dRpWRHx9Yq-Zz-41" value="" style="rounded=1;whiteSpace=wrap;html=1;shadow=0;labelBackgroundColor=none;strokeWidth=1;fontFamily=Verdana;fontSize=8;align=center;" vertex="1" parent="wHRNBy8dRpWRHx9Yq-Zz-40">
          <mxGeometry x="30" y="400" width="100" height="60" as="geometry" />
        </mxCell>
        <mxCell id="wHRNBy8dRpWRHx9Yq-Zz-42" value="" style="rounded=1;whiteSpace=wrap;html=1;shadow=0;labelBackgroundColor=none;strokeWidth=1;fontFamily=Verdana;fontSize=8;align=center;" vertex="1" parent="wHRNBy8dRpWRHx9Yq-Zz-40">
          <mxGeometry x="30" y="480" width="100" height="60" as="geometry" />
        </mxCell>
        <mxCell id="wHRNBy8dRpWRHx9Yq-Zz-43" value="" style="rounded=1;whiteSpace=wrap;html=1;shadow=0;labelBackgroundColor=none;strokeWidth=1;fontFamily=Verdana;fontSize=8;align=center;" vertex="1" parent="wHRNBy8dRpWRHx9Yq-Zz-40">
          <mxGeometry x="30" y="560" width="100" height="60" as="geometry" />
        </mxCell>
        <mxCell id="wHRNBy8dRpWRHx9Yq-Zz-44" value="" style="rounded=1;whiteSpace=wrap;html=1;shadow=0;labelBackgroundColor=none;strokeWidth=1;fontFamily=Verdana;fontSize=8;align=center;" vertex="1" parent="wHRNBy8dRpWRHx9Yq-Zz-40">
          <mxGeometry x="30" y="640" width="100" height="60" as="geometry" />
        </mxCell>
        <mxCell id="wHRNBy8dRpWRHx9Yq-Zz-45" style="edgeStyle=orthogonalEdgeStyle;rounded=1;html=1;labelBackgroundColor=none;startArrow=none;startFill=0;startSize=5;endArrow=classicThin;endFill=1;endSize=5;jettySize=auto;orthogonalLoop=1;strokeWidth=1;fontFamily=Verdana;fontSize=8" edge="1" parent="wHRNBy8dRpWRHx9Yq-Zz-40" source="wHRNBy8dRpWRHx9Yq-Zz-41" target="wHRNBy8dRpWRHx9Yq-Zz-42">
          <mxGeometry relative="1" as="geometry" />
        </mxCell>
        <mxCell id="wHRNBy8dRpWRHx9Yq-Zz-46" style="edgeStyle=orthogonalEdgeStyle;rounded=1;html=1;labelBackgroundColor=none;startArrow=none;startFill=0;startSize=5;endArrow=classicThin;endFill=1;endSize=5;jettySize=auto;orthogonalLoop=1;strokeWidth=1;fontFamily=Verdana;fontSize=8" edge="1" parent="wHRNBy8dRpWRHx9Yq-Zz-40" source="wHRNBy8dRpWRHx9Yq-Zz-42" target="wHRNBy8dRpWRHx9Yq-Zz-43">
          <mxGeometry relative="1" as="geometry" />
        </mxCell>
        <mxCell id="wHRNBy8dRpWRHx9Yq-Zz-47" value="Lane 6" style="swimlane;html=1;startSize=20;" vertex="1" parent="wHRNBy8dRpWRHx9Yq-Zz-4">
          <mxGeometry x="800" y="20" width="160" height="730" as="geometry" />
        </mxCell>
        <mxCell id="wHRNBy8dRpWRHx9Yq-Zz-48" value="" style="rounded=1;whiteSpace=wrap;html=1;shadow=0;labelBackgroundColor=none;strokeWidth=1;fontFamily=Verdana;fontSize=8;align=center;" vertex="1" parent="wHRNBy8dRpWRHx9Yq-Zz-47">
          <mxGeometry x="30" y="640" width="100" height="60" as="geometry" />
        </mxCell>
        <mxCell id="wHRNBy8dRpWRHx9Yq-Zz-62" style="edgeStyle=orthogonalEdgeStyle;rounded=0;orthogonalLoop=1;jettySize=auto;html=1;exitX=0.25;exitY=1;exitDx=0;exitDy=0;entryX=1;entryY=0.25;entryDx=0;entryDy=0;" edge="1" parent="wHRNBy8dRpWRHx9Yq-Zz-4" source="wHRNBy8dRpWRHx9Yq-Zz-58" target="wHRNBy8dRpWRHx9Yq-Zz-60">
          <mxGeometry relative="1" as="geometry" />
        </mxCell>
      </root>
    </mxGraphModel>
  </diagram>
</mxfile>
